# xmcd
# 
# Track frame offsets:
#     150
#     22635
#     44745
#     67705
#     88915
#     111752
#     133685
#     151760
#     169617
#     188350
#     211700
#     223150
#     239377
#     257000
#     276572
# 
# Disc length: 3732
# 
# Revision: 16
# Processed by: cddbd v1.5.2PL0 Copyright (c) Steve Scherf et al.
# Submitted via: fre:ac v1.0.17
# 
DISCID=c90e920f
DTITLE=En Vogue - Funky Divas
DYEAR=1992
DGENRE=Soul
TTITLE0=Runaway Love (feat. FMob) (E.P. Version)
TTITLE1=Whatta Man (Salt-N-Pepa feat. En Vogue)
TTITLE2=This Is Your Life
TTITLE3=My Lovin' (You're Never Gonna Get It)
TTITLE4=Hip Hop Lover
TTITLE5=Free Your Mind
TTITLE6=Desire
TTITLE7=Giving Him Something He Can Feel
TTITLE8=It Ain't Over Till The Fat Lady Sings
TTITLE9=Give It Up, Turn It Loose
TTITLE10=Yesterday
TTITLE11=Hooked On Your Love
TTITLE12=Love Don't Love You
TTITLE13=What Is Love
TTITLE14=Thanks (Prayer)
EXTD=
EXTT0=
EXTT1=
EXTT2=
EXTT3=
EXTT4=
EXTT5=
EXTT6=
EXTT7=
EXTT8=
EXTT9=
EXTT10=
EXTT11=
EXTT12=
EXTT13=
EXTT14=
PLAYORDER=
